<mxfile host="app.diagrams.net" agent="Mozilla/5.0 (X11; Linux x86_64; rv:128.0) Gecko/20100101 Firefox/128.0" version="24.7.6">
  <diagram name="Page-1" id="jGpcHOObZS97GvBV0dfr">
    <mxGraphModel dx="1302" dy="690" grid="1" gridSize="10" guides="1" tooltips="1" connect="1" arrows="1" fold="1" page="1" pageScale="1" pageWidth="850" pageHeight="1100" math="0" shadow="0">
      <root>
        <mxCell id="0" />
        <mxCell id="1" parent="0" />
        <mxCell id="LISKMKXOkjGHTyVoo3IR-11" value="" style="rounded=0;whiteSpace=wrap;html=1;" vertex="1" parent="1">
          <mxGeometry x="220" y="60" width="550" height="490" as="geometry" />
        </mxCell>
        <mxCell id="LISKMKXOkjGHTyVoo3IR-12" value="" style="shape=cube;whiteSpace=wrap;html=1;boundedLbl=1;backgroundOutline=1;darkOpacity=0.05;darkOpacity2=0.1;" vertex="1" parent="1">
          <mxGeometry x="280" y="330" width="380" height="180" as="geometry" />
        </mxCell>
        <mxCell id="LISKMKXOkjGHTyVoo3IR-3" value="" style="edgeStyle=orthogonalEdgeStyle;rounded=0;orthogonalLoop=1;jettySize=auto;html=1;" edge="1" parent="1" source="LISKMKXOkjGHTyVoo3IR-1" target="LISKMKXOkjGHTyVoo3IR-2">
          <mxGeometry relative="1" as="geometry" />
        </mxCell>
        <mxCell id="LISKMKXOkjGHTyVoo3IR-9" style="edgeStyle=orthogonalEdgeStyle;rounded=0;orthogonalLoop=1;jettySize=auto;html=1;endArrow=none;endFill=0;dashed=1;" edge="1" parent="1" source="LISKMKXOkjGHTyVoo3IR-1" target="LISKMKXOkjGHTyVoo3IR-2">
          <mxGeometry relative="1" as="geometry" />
        </mxCell>
        <mxCell id="LISKMKXOkjGHTyVoo3IR-1" value="gluetun-container" style="sketch=0;outlineConnect=0;fontColor=#232F3E;gradientColor=none;strokeColor=#232F3E;fillColor=#ffffff;dashed=0;verticalLabelPosition=bottom;verticalAlign=top;align=center;html=1;fontSize=12;fontStyle=0;aspect=fixed;shape=mxgraph.aws4.resourceIcon;resIcon=mxgraph.aws4.container_2;" vertex="1" parent="1">
          <mxGeometry x="390" y="400" width="60" height="60" as="geometry" />
        </mxCell>
        <mxCell id="LISKMKXOkjGHTyVoo3IR-8" value="" style="edgeStyle=orthogonalEdgeStyle;rounded=0;orthogonalLoop=1;jettySize=auto;html=1;startArrow=classic;startFill=1;endArrow=none;endFill=0;" edge="1" parent="1" source="LISKMKXOkjGHTyVoo3IR-2" target="LISKMKXOkjGHTyVoo3IR-7">
          <mxGeometry relative="1" as="geometry" />
        </mxCell>
        <mxCell id="LISKMKXOkjGHTyVoo3IR-2" value="qbittorrent" style="sketch=0;outlineConnect=0;fontColor=#232F3E;gradientColor=none;strokeColor=#232F3E;fillColor=#ffffff;dashed=0;verticalLabelPosition=bottom;verticalAlign=top;align=center;html=1;fontSize=12;fontStyle=0;aspect=fixed;shape=mxgraph.aws4.resourceIcon;resIcon=mxgraph.aws4.container_2;" vertex="1" parent="1">
          <mxGeometry x="530" y="400" width="60" height="60" as="geometry" />
        </mxCell>
        <mxCell id="LISKMKXOkjGHTyVoo3IR-6" value="POD: gluetun" style="text;html=1;align=center;verticalAlign=middle;whiteSpace=wrap;rounded=0;" vertex="1" parent="1">
          <mxGeometry x="310" y="360" width="60" height="30" as="geometry" />
        </mxCell>
        <mxCell id="LISKMKXOkjGHTyVoo3IR-7" value="radarr" style="sketch=0;outlineConnect=0;fontColor=#232F3E;gradientColor=none;strokeColor=#232F3E;fillColor=#ffffff;dashed=0;verticalLabelPosition=bottom;verticalAlign=top;align=center;html=1;fontSize=12;fontStyle=0;aspect=fixed;shape=mxgraph.aws4.resourceIcon;resIcon=mxgraph.aws4.container_2;" vertex="1" parent="1">
          <mxGeometry x="530" y="200" width="60" height="60" as="geometry" />
        </mxCell>
        <mxCell id="LISKMKXOkjGHTyVoo3IR-10" value="&lt;div&gt;network:&amp;nbsp;&lt;/div&gt;&lt;div&gt;caddy_net&lt;/div&gt;" style="ellipse;shape=cloud;whiteSpace=wrap;html=1;" vertex="1" parent="1">
          <mxGeometry x="620" y="100" width="120" height="80" as="geometry" />
        </mxCell>
        <mxCell id="LISKMKXOkjGHTyVoo3IR-16" value="Rootless Podman" style="shape=image;verticalLabelPosition=bottom;labelBackgroundColor=default;verticalAlign=top;aspect=fixed;imageAspect=0;image=https://www.justinleegrant.com/assets/img/2021/podman.png;" vertex="1" parent="1">
          <mxGeometry x="279.5" y="90" width="110.5" height="110" as="geometry" />
        </mxCell>
      </root>
    </mxGraphModel>
  </diagram>
</mxfile>
